<mxfile host="app.diagrams.net" modified="2023-04-16T15:41:25.816Z" agent="Mozilla/5.0 (Windows NT 10.0; Win64; x64) AppleWebKit/537.36 (KHTML, like Gecko) Chrome/112.0.0.0 Safari/537.36" etag="f9InRmp2SZwvK18sbG5A" version="21.1.8" type="github">
  <diagram name="페이지-1" id="GtLDHEmWN3uCnMpsGGqO">
    <mxGraphModel dx="2736" dy="1056" grid="1" gridSize="10" guides="1" tooltips="1" connect="1" arrows="1" fold="1" page="1" pageScale="1" pageWidth="827" pageHeight="1169" math="0" shadow="0">
      <root>
        <mxCell id="0" />
        <mxCell id="1" parent="0" />
        <mxCell id="ZL6FqzTWpidE5rbKrD5R-1" value="Manager" style="shape=umlActor;verticalLabelPosition=bottom;verticalAlign=top;html=1;outlineConnect=0;" vertex="1" parent="1">
          <mxGeometry x="-650" y="140" width="30" height="60" as="geometry" />
        </mxCell>
        <mxCell id="ZL6FqzTWpidE5rbKrD5R-2" value="MPM01. Register Manufaturing plant" style="ellipse;whiteSpace=wrap;html=1;" vertex="1" parent="1">
          <mxGeometry x="-550" y="60" width="163" height="50" as="geometry" />
        </mxCell>
        <mxCell id="ZL6FqzTWpidE5rbKrD5R-3" value="MPM02. Retieve registered Manufaturing plant" style="ellipse;whiteSpace=wrap;html=1;" vertex="1" parent="1">
          <mxGeometry x="-550" y="120" width="163" height="50" as="geometry" />
        </mxCell>
        <mxCell id="ZL6FqzTWpidE5rbKrD5R-4" value="MPM03. Modify registered Manufaturing plant" style="ellipse;whiteSpace=wrap;html=1;" vertex="1" parent="1">
          <mxGeometry x="-550" y="180" width="163" height="50" as="geometry" />
        </mxCell>
        <mxCell id="ZL6FqzTWpidE5rbKrD5R-5" value="MPM04. Uregiste Manufaturing plant" style="ellipse;whiteSpace=wrap;html=1;" vertex="1" parent="1">
          <mxGeometry x="-550" y="245" width="163" height="50" as="geometry" />
        </mxCell>
        <mxCell id="ZL6FqzTWpidE5rbKrD5R-6" value="" style="endArrow=none;html=1;rounded=0;exitX=1;exitY=0.3333333333333333;exitDx=0;exitDy=0;exitPerimeter=0;entryX=0;entryY=0.5;entryDx=0;entryDy=0;" edge="1" parent="1" source="ZL6FqzTWpidE5rbKrD5R-1" target="ZL6FqzTWpidE5rbKrD5R-2">
          <mxGeometry width="50" height="50" relative="1" as="geometry">
            <mxPoint x="-390" y="320" as="sourcePoint" />
            <mxPoint x="-340" y="270" as="targetPoint" />
          </mxGeometry>
        </mxCell>
        <mxCell id="ZL6FqzTWpidE5rbKrD5R-7" value="" style="endArrow=none;html=1;rounded=0;entryX=0;entryY=0.5;entryDx=0;entryDy=0;" edge="1" parent="1" target="ZL6FqzTWpidE5rbKrD5R-3">
          <mxGeometry width="50" height="50" relative="1" as="geometry">
            <mxPoint x="-620" y="160" as="sourcePoint" />
            <mxPoint x="-540" y="95" as="targetPoint" />
          </mxGeometry>
        </mxCell>
        <mxCell id="ZL6FqzTWpidE5rbKrD5R-8" value="" style="endArrow=none;html=1;rounded=0;entryX=0;entryY=0.5;entryDx=0;entryDy=0;" edge="1" parent="1" target="ZL6FqzTWpidE5rbKrD5R-4">
          <mxGeometry width="50" height="50" relative="1" as="geometry">
            <mxPoint x="-620" y="160" as="sourcePoint" />
            <mxPoint x="-540" y="155" as="targetPoint" />
          </mxGeometry>
        </mxCell>
        <mxCell id="ZL6FqzTWpidE5rbKrD5R-9" value="" style="endArrow=none;html=1;rounded=0;entryX=0;entryY=0.5;entryDx=0;entryDy=0;" edge="1" parent="1" target="ZL6FqzTWpidE5rbKrD5R-5">
          <mxGeometry width="50" height="50" relative="1" as="geometry">
            <mxPoint x="-620" y="160" as="sourcePoint" />
            <mxPoint x="-540" y="215" as="targetPoint" />
          </mxGeometry>
        </mxCell>
        <mxCell id="ZL6FqzTWpidE5rbKrD5R-10" value="Manager" style="shape=umlActor;verticalLabelPosition=bottom;verticalAlign=top;html=1;outlineConnect=0;" vertex="1" parent="1">
          <mxGeometry x="-240" y="150" width="30" height="60" as="geometry" />
        </mxCell>
        <mxCell id="ZL6FqzTWpidE5rbKrD5R-11" value="MOM01. Register &lt;br&gt;Managed Object" style="ellipse;whiteSpace=wrap;html=1;" vertex="1" parent="1">
          <mxGeometry x="-140" y="70" width="163" height="50" as="geometry" />
        </mxCell>
        <mxCell id="ZL6FqzTWpidE5rbKrD5R-12" value="&lt;span style=&quot;color: rgb(0, 0, 0); font-family: Helvetica; font-size: 12px; font-style: normal; font-variant-ligatures: normal; font-variant-caps: normal; font-weight: 400; letter-spacing: normal; orphans: 2; text-align: center; text-indent: 0px; text-transform: none; widows: 2; word-spacing: 0px; -webkit-text-stroke-width: 0px; background-color: rgb(251, 251, 251); text-decoration-thickness: initial; text-decoration-style: initial; text-decoration-color: initial; float: none; display: inline !important;&quot;&gt;MOM02. Retieve registered Managed Object&lt;/span&gt;" style="ellipse;whiteSpace=wrap;html=1;" vertex="1" parent="1">
          <mxGeometry x="-140" y="130" width="163" height="50" as="geometry" />
        </mxCell>
        <mxCell id="ZL6FqzTWpidE5rbKrD5R-13" value="&lt;span style=&quot;color: rgb(0, 0, 0); font-family: Helvetica; font-size: 12px; font-style: normal; font-variant-ligatures: normal; font-variant-caps: normal; font-weight: 400; letter-spacing: normal; orphans: 2; text-align: center; text-indent: 0px; text-transform: none; widows: 2; word-spacing: 0px; -webkit-text-stroke-width: 0px; background-color: rgb(251, 251, 251); text-decoration-thickness: initial; text-decoration-style: initial; text-decoration-color: initial; float: none; display: inline !important;&quot;&gt;MOM03. Modify registered Managed Object&lt;/span&gt;" style="ellipse;whiteSpace=wrap;html=1;" vertex="1" parent="1">
          <mxGeometry x="-140" y="190" width="163" height="50" as="geometry" />
        </mxCell>
        <mxCell id="ZL6FqzTWpidE5rbKrD5R-14" value="&lt;span style=&quot;color: rgb(0, 0, 0); font-family: Helvetica; font-size: 12px; font-style: normal; font-variant-ligatures: normal; font-variant-caps: normal; font-weight: 400; letter-spacing: normal; orphans: 2; text-align: center; text-indent: 0px; text-transform: none; widows: 2; word-spacing: 0px; -webkit-text-stroke-width: 0px; background-color: rgb(251, 251, 251); text-decoration-thickness: initial; text-decoration-style: initial; text-decoration-color: initial; float: none; display: inline !important;&quot;&gt;MOM04. Unregister &lt;br&gt;Managed Object&lt;/span&gt;" style="ellipse;whiteSpace=wrap;html=1;" vertex="1" parent="1">
          <mxGeometry x="-140" y="255" width="163" height="50" as="geometry" />
        </mxCell>
        <mxCell id="ZL6FqzTWpidE5rbKrD5R-15" value="" style="endArrow=none;html=1;rounded=0;exitX=1;exitY=0.3333333333333333;exitDx=0;exitDy=0;exitPerimeter=0;entryX=0;entryY=0.5;entryDx=0;entryDy=0;" edge="1" parent="1" source="ZL6FqzTWpidE5rbKrD5R-10" target="ZL6FqzTWpidE5rbKrD5R-11">
          <mxGeometry width="50" height="50" relative="1" as="geometry">
            <mxPoint x="20" y="330" as="sourcePoint" />
            <mxPoint x="70" y="280" as="targetPoint" />
          </mxGeometry>
        </mxCell>
        <mxCell id="ZL6FqzTWpidE5rbKrD5R-16" value="" style="endArrow=none;html=1;rounded=0;entryX=0;entryY=0.5;entryDx=0;entryDy=0;" edge="1" parent="1" target="ZL6FqzTWpidE5rbKrD5R-12">
          <mxGeometry width="50" height="50" relative="1" as="geometry">
            <mxPoint x="-210" y="170" as="sourcePoint" />
            <mxPoint x="-130" y="105" as="targetPoint" />
          </mxGeometry>
        </mxCell>
        <mxCell id="ZL6FqzTWpidE5rbKrD5R-17" value="" style="endArrow=none;html=1;rounded=0;entryX=0;entryY=0.5;entryDx=0;entryDy=0;" edge="1" parent="1" target="ZL6FqzTWpidE5rbKrD5R-13">
          <mxGeometry width="50" height="50" relative="1" as="geometry">
            <mxPoint x="-210" y="170" as="sourcePoint" />
            <mxPoint x="-130" y="165" as="targetPoint" />
          </mxGeometry>
        </mxCell>
        <mxCell id="ZL6FqzTWpidE5rbKrD5R-18" value="" style="endArrow=none;html=1;rounded=0;entryX=0;entryY=0.5;entryDx=0;entryDy=0;" edge="1" parent="1" target="ZL6FqzTWpidE5rbKrD5R-14">
          <mxGeometry width="50" height="50" relative="1" as="geometry">
            <mxPoint x="-210" y="170" as="sourcePoint" />
            <mxPoint x="-130" y="225" as="targetPoint" />
          </mxGeometry>
        </mxCell>
        <mxCell id="ZL6FqzTWpidE5rbKrD5R-19" value="Manager" style="shape=umlActor;verticalLabelPosition=bottom;verticalAlign=top;html=1;outlineConnect=0;" vertex="1" parent="1">
          <mxGeometry x="140" y="150" width="30" height="60" as="geometry" />
        </mxCell>
        <mxCell id="ZL6FqzTWpidE5rbKrD5R-20" value="HDM01. Register &lt;br&gt;Hardware device" style="ellipse;whiteSpace=wrap;html=1;" vertex="1" parent="1">
          <mxGeometry x="240" y="70" width="163" height="50" as="geometry" />
        </mxCell>
        <mxCell id="ZL6FqzTWpidE5rbKrD5R-21" value="HDM02. Retieve registered Hardware device" style="ellipse;whiteSpace=wrap;html=1;" vertex="1" parent="1">
          <mxGeometry x="240" y="130" width="163" height="50" as="geometry" />
        </mxCell>
        <mxCell id="ZL6FqzTWpidE5rbKrD5R-22" value="HDM03. Modify registered Hardware device" style="ellipse;whiteSpace=wrap;html=1;" vertex="1" parent="1">
          <mxGeometry x="240" y="190" width="163" height="50" as="geometry" />
        </mxCell>
        <mxCell id="ZL6FqzTWpidE5rbKrD5R-23" value="HDM04. Unregister &lt;br&gt;Hardware device" style="ellipse;whiteSpace=wrap;html=1;" vertex="1" parent="1">
          <mxGeometry x="240" y="255" width="163" height="50" as="geometry" />
        </mxCell>
        <mxCell id="ZL6FqzTWpidE5rbKrD5R-24" value="" style="endArrow=none;html=1;rounded=0;exitX=1;exitY=0.3333333333333333;exitDx=0;exitDy=0;exitPerimeter=0;entryX=0;entryY=0.5;entryDx=0;entryDy=0;" edge="1" parent="1" source="ZL6FqzTWpidE5rbKrD5R-19" target="ZL6FqzTWpidE5rbKrD5R-20">
          <mxGeometry width="50" height="50" relative="1" as="geometry">
            <mxPoint x="400" y="330" as="sourcePoint" />
            <mxPoint x="450" y="280" as="targetPoint" />
          </mxGeometry>
        </mxCell>
        <mxCell id="ZL6FqzTWpidE5rbKrD5R-25" value="" style="endArrow=none;html=1;rounded=0;entryX=0;entryY=0.5;entryDx=0;entryDy=0;" edge="1" parent="1" target="ZL6FqzTWpidE5rbKrD5R-21">
          <mxGeometry width="50" height="50" relative="1" as="geometry">
            <mxPoint x="170" y="170" as="sourcePoint" />
            <mxPoint x="250" y="105" as="targetPoint" />
          </mxGeometry>
        </mxCell>
        <mxCell id="ZL6FqzTWpidE5rbKrD5R-26" value="" style="endArrow=none;html=1;rounded=0;entryX=0;entryY=0.5;entryDx=0;entryDy=0;" edge="1" parent="1" target="ZL6FqzTWpidE5rbKrD5R-22">
          <mxGeometry width="50" height="50" relative="1" as="geometry">
            <mxPoint x="170" y="170" as="sourcePoint" />
            <mxPoint x="250" y="165" as="targetPoint" />
          </mxGeometry>
        </mxCell>
        <mxCell id="ZL6FqzTWpidE5rbKrD5R-27" value="" style="endArrow=none;html=1;rounded=0;entryX=0;entryY=0.5;entryDx=0;entryDy=0;" edge="1" parent="1" target="ZL6FqzTWpidE5rbKrD5R-23">
          <mxGeometry width="50" height="50" relative="1" as="geometry">
            <mxPoint x="170" y="170" as="sourcePoint" />
            <mxPoint x="250" y="225" as="targetPoint" />
          </mxGeometry>
        </mxCell>
        <mxCell id="ZL6FqzTWpidE5rbKrD5R-28" value="Worker" style="shape=umlActor;verticalLabelPosition=bottom;verticalAlign=top;html=1;outlineConnect=0;" vertex="1" parent="1">
          <mxGeometry x="-670" y="546" width="30" height="60" as="geometry" />
        </mxCell>
        <mxCell id="ZL6FqzTWpidE5rbKrD5R-29" value="WPM01. Register &lt;br&gt;worker profile" style="ellipse;whiteSpace=wrap;html=1;" vertex="1" parent="1">
          <mxGeometry x="-550" y="420" width="163" height="50" as="geometry" />
        </mxCell>
        <mxCell id="ZL6FqzTWpidE5rbKrD5R-30" value="WPM02. Retieve&lt;br style=&quot;border-color: var(--border-color);&quot;&gt;worker profile" style="ellipse;whiteSpace=wrap;html=1;" vertex="1" parent="1">
          <mxGeometry x="-550" y="480" width="163" height="50" as="geometry" />
        </mxCell>
        <mxCell id="ZL6FqzTWpidE5rbKrD5R-31" value="WPM03. Modify&lt;br style=&quot;border-color: var(--border-color);&quot;&gt;worker profile" style="ellipse;whiteSpace=wrap;html=1;" vertex="1" parent="1">
          <mxGeometry x="-550" y="540" width="163" height="50" as="geometry" />
        </mxCell>
        <mxCell id="ZL6FqzTWpidE5rbKrD5R-32" value="WPM04. Unregister&lt;br style=&quot;border-color: var(--border-color);&quot;&gt;worker profile" style="ellipse;whiteSpace=wrap;html=1;" vertex="1" parent="1">
          <mxGeometry x="-550" y="605" width="163" height="50" as="geometry" />
        </mxCell>
        <mxCell id="ZL6FqzTWpidE5rbKrD5R-33" value="" style="endArrow=none;html=1;rounded=0;exitX=1;exitY=0.3333333333333333;exitDx=0;exitDy=0;exitPerimeter=0;entryX=0;entryY=0.5;entryDx=0;entryDy=0;" edge="1" parent="1" source="ZL6FqzTWpidE5rbKrD5R-28" target="ZL6FqzTWpidE5rbKrD5R-29">
          <mxGeometry width="50" height="50" relative="1" as="geometry">
            <mxPoint x="-390" y="680" as="sourcePoint" />
            <mxPoint x="-340" y="630" as="targetPoint" />
          </mxGeometry>
        </mxCell>
        <mxCell id="ZL6FqzTWpidE5rbKrD5R-34" value="" style="endArrow=none;html=1;rounded=0;entryX=0;entryY=0.5;entryDx=0;entryDy=0;" edge="1" parent="1" source="ZL6FqzTWpidE5rbKrD5R-28" target="ZL6FqzTWpidE5rbKrD5R-30">
          <mxGeometry width="50" height="50" relative="1" as="geometry">
            <mxPoint x="-630" y="580" as="sourcePoint" />
            <mxPoint x="-540" y="455" as="targetPoint" />
          </mxGeometry>
        </mxCell>
        <mxCell id="ZL6FqzTWpidE5rbKrD5R-35" value="" style="endArrow=none;html=1;rounded=0;entryX=0;entryY=0.5;entryDx=0;entryDy=0;exitX=1;exitY=0.3333333333333333;exitDx=0;exitDy=0;exitPerimeter=0;" edge="1" parent="1" source="ZL6FqzTWpidE5rbKrD5R-28" target="ZL6FqzTWpidE5rbKrD5R-31">
          <mxGeometry width="50" height="50" relative="1" as="geometry">
            <mxPoint x="-630" y="570" as="sourcePoint" />
            <mxPoint x="-540" y="515" as="targetPoint" />
          </mxGeometry>
        </mxCell>
        <mxCell id="ZL6FqzTWpidE5rbKrD5R-36" value="" style="endArrow=none;html=1;rounded=0;entryX=0;entryY=0.5;entryDx=0;entryDy=0;exitX=1;exitY=0.3333333333333333;exitDx=0;exitDy=0;exitPerimeter=0;" edge="1" parent="1" source="ZL6FqzTWpidE5rbKrD5R-28" target="ZL6FqzTWpidE5rbKrD5R-32">
          <mxGeometry width="50" height="50" relative="1" as="geometry">
            <mxPoint x="-630" y="580" as="sourcePoint" />
            <mxPoint x="-540" y="575" as="targetPoint" />
          </mxGeometry>
        </mxCell>
        <mxCell id="ZL6FqzTWpidE5rbKrD5R-37" value="WPM05. Worker log in" style="ellipse;whiteSpace=wrap;html=1;" vertex="1" parent="1">
          <mxGeometry x="-550" y="670" width="163" height="50" as="geometry" />
        </mxCell>
        <mxCell id="ZL6FqzTWpidE5rbKrD5R-38" value="WPM05. Worker log out" style="ellipse;whiteSpace=wrap;html=1;" vertex="1" parent="1">
          <mxGeometry x="-550" y="730" width="163" height="50" as="geometry" />
        </mxCell>
        <mxCell id="ZL6FqzTWpidE5rbKrD5R-39" value="" style="endArrow=none;html=1;rounded=0;entryX=0;entryY=0.5;entryDx=0;entryDy=0;exitX=1;exitY=0.3333333333333333;exitDx=0;exitDy=0;exitPerimeter=0;" edge="1" parent="1" source="ZL6FqzTWpidE5rbKrD5R-28" target="ZL6FqzTWpidE5rbKrD5R-37">
          <mxGeometry width="50" height="50" relative="1" as="geometry">
            <mxPoint x="-630" y="580" as="sourcePoint" />
            <mxPoint x="-300" y="740" as="targetPoint" />
          </mxGeometry>
        </mxCell>
        <mxCell id="ZL6FqzTWpidE5rbKrD5R-40" value="" style="endArrow=none;html=1;rounded=0;entryX=0;entryY=0.5;entryDx=0;entryDy=0;exitX=1;exitY=0.3333333333333333;exitDx=0;exitDy=0;exitPerimeter=0;" edge="1" parent="1" source="ZL6FqzTWpidE5rbKrD5R-28" target="ZL6FqzTWpidE5rbKrD5R-38">
          <mxGeometry width="50" height="50" relative="1" as="geometry">
            <mxPoint x="-630" y="570" as="sourcePoint" />
            <mxPoint x="-300" y="740" as="targetPoint" />
          </mxGeometry>
        </mxCell>
        <mxCell id="ZL6FqzTWpidE5rbKrD5R-41" value="Manager" style="shape=umlActor;verticalLabelPosition=bottom;verticalAlign=top;html=1;outlineConnect=0;" vertex="1" parent="1">
          <mxGeometry x="-270" y="545" width="30" height="60" as="geometry" />
        </mxCell>
        <mxCell id="ZL6FqzTWpidE5rbKrD5R-42" value="MPM01. Register &lt;br&gt;manager profile" style="ellipse;whiteSpace=wrap;html=1;" vertex="1" parent="1">
          <mxGeometry x="-150" y="420" width="163" height="50" as="geometry" />
        </mxCell>
        <mxCell id="ZL6FqzTWpidE5rbKrD5R-43" value="MPM02. Retieve&lt;br style=&quot;border-color: var(--border-color);&quot;&gt;manager profile" style="ellipse;whiteSpace=wrap;html=1;" vertex="1" parent="1">
          <mxGeometry x="-150" y="480" width="163" height="50" as="geometry" />
        </mxCell>
        <mxCell id="ZL6FqzTWpidE5rbKrD5R-44" value="MPM03. Modify&lt;br style=&quot;border-color: var(--border-color);&quot;&gt;manager profile" style="ellipse;whiteSpace=wrap;html=1;" vertex="1" parent="1">
          <mxGeometry x="-150" y="540" width="163" height="50" as="geometry" />
        </mxCell>
        <mxCell id="ZL6FqzTWpidE5rbKrD5R-45" value="MPM04. Unregister&lt;br style=&quot;border-color: var(--border-color);&quot;&gt;manager profile" style="ellipse;whiteSpace=wrap;html=1;" vertex="1" parent="1">
          <mxGeometry x="-150" y="605" width="163" height="50" as="geometry" />
        </mxCell>
        <mxCell id="ZL6FqzTWpidE5rbKrD5R-46" value="" style="endArrow=none;html=1;rounded=0;exitX=1;exitY=0.3333333333333333;exitDx=0;exitDy=0;exitPerimeter=0;entryX=0;entryY=0.5;entryDx=0;entryDy=0;" edge="1" parent="1" source="ZL6FqzTWpidE5rbKrD5R-41" target="ZL6FqzTWpidE5rbKrD5R-42">
          <mxGeometry width="50" height="50" relative="1" as="geometry">
            <mxPoint x="10" y="680" as="sourcePoint" />
            <mxPoint x="60" y="630" as="targetPoint" />
          </mxGeometry>
        </mxCell>
        <mxCell id="ZL6FqzTWpidE5rbKrD5R-47" value="" style="endArrow=none;html=1;rounded=0;entryX=0;entryY=0.5;entryDx=0;entryDy=0;" edge="1" parent="1" source="ZL6FqzTWpidE5rbKrD5R-41" target="ZL6FqzTWpidE5rbKrD5R-43">
          <mxGeometry width="50" height="50" relative="1" as="geometry">
            <mxPoint x="-230" y="580" as="sourcePoint" />
            <mxPoint x="-140" y="455" as="targetPoint" />
          </mxGeometry>
        </mxCell>
        <mxCell id="ZL6FqzTWpidE5rbKrD5R-48" value="" style="endArrow=none;html=1;rounded=0;entryX=0;entryY=0.5;entryDx=0;entryDy=0;exitX=1;exitY=0.3333333333333333;exitDx=0;exitDy=0;exitPerimeter=0;" edge="1" parent="1" source="ZL6FqzTWpidE5rbKrD5R-41" target="ZL6FqzTWpidE5rbKrD5R-44">
          <mxGeometry width="50" height="50" relative="1" as="geometry">
            <mxPoint x="-230" y="570" as="sourcePoint" />
            <mxPoint x="-140" y="515" as="targetPoint" />
          </mxGeometry>
        </mxCell>
        <mxCell id="ZL6FqzTWpidE5rbKrD5R-49" value="" style="endArrow=none;html=1;rounded=0;entryX=0;entryY=0.5;entryDx=0;entryDy=0;exitX=1;exitY=0.3333333333333333;exitDx=0;exitDy=0;exitPerimeter=0;" edge="1" parent="1" source="ZL6FqzTWpidE5rbKrD5R-41" target="ZL6FqzTWpidE5rbKrD5R-45">
          <mxGeometry width="50" height="50" relative="1" as="geometry">
            <mxPoint x="-230" y="580" as="sourcePoint" />
            <mxPoint x="-140" y="575" as="targetPoint" />
          </mxGeometry>
        </mxCell>
        <mxCell id="ZL6FqzTWpidE5rbKrD5R-50" value="MPM05. Manager log in" style="ellipse;whiteSpace=wrap;html=1;" vertex="1" parent="1">
          <mxGeometry x="-150" y="670" width="163" height="50" as="geometry" />
        </mxCell>
        <mxCell id="ZL6FqzTWpidE5rbKrD5R-51" value="MPM06. Manager log out" style="ellipse;whiteSpace=wrap;html=1;" vertex="1" parent="1">
          <mxGeometry x="-150" y="730" width="163" height="50" as="geometry" />
        </mxCell>
        <mxCell id="ZL6FqzTWpidE5rbKrD5R-52" value="" style="endArrow=none;html=1;rounded=0;entryX=0;entryY=0.5;entryDx=0;entryDy=0;exitX=1;exitY=0.3333333333333333;exitDx=0;exitDy=0;exitPerimeter=0;" edge="1" parent="1" source="ZL6FqzTWpidE5rbKrD5R-41" target="ZL6FqzTWpidE5rbKrD5R-50">
          <mxGeometry width="50" height="50" relative="1" as="geometry">
            <mxPoint x="-230" y="580" as="sourcePoint" />
            <mxPoint x="100" y="740" as="targetPoint" />
          </mxGeometry>
        </mxCell>
        <mxCell id="ZL6FqzTWpidE5rbKrD5R-53" value="" style="endArrow=none;html=1;rounded=0;entryX=0;entryY=0.5;entryDx=0;entryDy=0;exitX=1;exitY=0.3333333333333333;exitDx=0;exitDy=0;exitPerimeter=0;" edge="1" parent="1" source="ZL6FqzTWpidE5rbKrD5R-41" target="ZL6FqzTWpidE5rbKrD5R-51">
          <mxGeometry width="50" height="50" relative="1" as="geometry">
            <mxPoint x="-230" y="570" as="sourcePoint" />
            <mxPoint x="100" y="740" as="targetPoint" />
          </mxGeometry>
        </mxCell>
        <mxCell id="ZL6FqzTWpidE5rbKrD5R-54" value="Manager" style="shape=umlActor;verticalLabelPosition=bottom;verticalAlign=top;html=1;outlineConnect=0;" vertex="1" parent="1">
          <mxGeometry x="120" y="537.5" width="30" height="60" as="geometry" />
        </mxCell>
        <mxCell id="ZL6FqzTWpidE5rbKrD5R-55" value="ATM01. Register &lt;br&gt;Anomaly Type" style="ellipse;whiteSpace=wrap;html=1;" vertex="1" parent="1">
          <mxGeometry x="220" y="457.5" width="163" height="50" as="geometry" />
        </mxCell>
        <mxCell id="ZL6FqzTWpidE5rbKrD5R-56" value="ATM02. Retieve registered Anomaly Type" style="ellipse;whiteSpace=wrap;html=1;" vertex="1" parent="1">
          <mxGeometry x="220" y="517.5" width="163" height="50" as="geometry" />
        </mxCell>
        <mxCell id="ZL6FqzTWpidE5rbKrD5R-57" value="ATM03. Modify registered Anomaly Type" style="ellipse;whiteSpace=wrap;html=1;" vertex="1" parent="1">
          <mxGeometry x="220" y="577.5" width="163" height="50" as="geometry" />
        </mxCell>
        <mxCell id="ZL6FqzTWpidE5rbKrD5R-58" value="ATM04. Unregister &lt;br&gt;Anomaly Type" style="ellipse;whiteSpace=wrap;html=1;" vertex="1" parent="1">
          <mxGeometry x="220" y="642.5" width="163" height="50" as="geometry" />
        </mxCell>
        <mxCell id="ZL6FqzTWpidE5rbKrD5R-59" value="" style="endArrow=none;html=1;rounded=0;exitX=1;exitY=0.3333333333333333;exitDx=0;exitDy=0;exitPerimeter=0;entryX=0;entryY=0.5;entryDx=0;entryDy=0;" edge="1" parent="1" source="ZL6FqzTWpidE5rbKrD5R-54" target="ZL6FqzTWpidE5rbKrD5R-55">
          <mxGeometry width="50" height="50" relative="1" as="geometry">
            <mxPoint x="380" y="717.5" as="sourcePoint" />
            <mxPoint x="430" y="667.5" as="targetPoint" />
          </mxGeometry>
        </mxCell>
        <mxCell id="ZL6FqzTWpidE5rbKrD5R-60" value="" style="endArrow=none;html=1;rounded=0;entryX=0;entryY=0.5;entryDx=0;entryDy=0;" edge="1" parent="1" target="ZL6FqzTWpidE5rbKrD5R-56">
          <mxGeometry width="50" height="50" relative="1" as="geometry">
            <mxPoint x="150" y="557.5" as="sourcePoint" />
            <mxPoint x="230" y="492.5" as="targetPoint" />
          </mxGeometry>
        </mxCell>
        <mxCell id="ZL6FqzTWpidE5rbKrD5R-61" value="" style="endArrow=none;html=1;rounded=0;entryX=0;entryY=0.5;entryDx=0;entryDy=0;" edge="1" parent="1" target="ZL6FqzTWpidE5rbKrD5R-57">
          <mxGeometry width="50" height="50" relative="1" as="geometry">
            <mxPoint x="150" y="557.5" as="sourcePoint" />
            <mxPoint x="230" y="552.5" as="targetPoint" />
          </mxGeometry>
        </mxCell>
        <mxCell id="ZL6FqzTWpidE5rbKrD5R-62" value="" style="endArrow=none;html=1;rounded=0;entryX=0;entryY=0.5;entryDx=0;entryDy=0;" edge="1" parent="1" target="ZL6FqzTWpidE5rbKrD5R-58">
          <mxGeometry width="50" height="50" relative="1" as="geometry">
            <mxPoint x="150" y="557.5" as="sourcePoint" />
            <mxPoint x="230" y="612.5" as="targetPoint" />
          </mxGeometry>
        </mxCell>
        <mxCell id="ZL6FqzTWpidE5rbKrD5R-63" value="Manager" style="shape=umlActor;verticalLabelPosition=bottom;verticalAlign=top;html=1;outlineConnect=0;" vertex="1" parent="1">
          <mxGeometry x="430" y="537.5" width="30" height="60" as="geometry" />
        </mxCell>
        <mxCell id="ZL6FqzTWpidE5rbKrD5R-64" value="RMM01. Register &lt;br&gt;Remedy Method" style="ellipse;whiteSpace=wrap;html=1;" vertex="1" parent="1">
          <mxGeometry x="530" y="457.5" width="163" height="50" as="geometry" />
        </mxCell>
        <mxCell id="ZL6FqzTWpidE5rbKrD5R-65" value="RMM02. Retieve registered Remedy Method" style="ellipse;whiteSpace=wrap;html=1;" vertex="1" parent="1">
          <mxGeometry x="530" y="517.5" width="163" height="50" as="geometry" />
        </mxCell>
        <mxCell id="ZL6FqzTWpidE5rbKrD5R-66" value="RMM03. Modify registered Remedy Method" style="ellipse;whiteSpace=wrap;html=1;" vertex="1" parent="1">
          <mxGeometry x="530" y="577.5" width="163" height="50" as="geometry" />
        </mxCell>
        <mxCell id="ZL6FqzTWpidE5rbKrD5R-67" value="RMM04. Unregister &lt;br&gt;Remedy Method" style="ellipse;whiteSpace=wrap;html=1;" vertex="1" parent="1">
          <mxGeometry x="530" y="642.5" width="163" height="50" as="geometry" />
        </mxCell>
        <mxCell id="ZL6FqzTWpidE5rbKrD5R-68" value="" style="endArrow=none;html=1;rounded=0;exitX=1;exitY=0.3333333333333333;exitDx=0;exitDy=0;exitPerimeter=0;entryX=0;entryY=0.5;entryDx=0;entryDy=0;" edge="1" parent="1" source="ZL6FqzTWpidE5rbKrD5R-63" target="ZL6FqzTWpidE5rbKrD5R-64">
          <mxGeometry width="50" height="50" relative="1" as="geometry">
            <mxPoint x="690" y="717.5" as="sourcePoint" />
            <mxPoint x="740" y="667.5" as="targetPoint" />
          </mxGeometry>
        </mxCell>
        <mxCell id="ZL6FqzTWpidE5rbKrD5R-69" value="" style="endArrow=none;html=1;rounded=0;entryX=0;entryY=0.5;entryDx=0;entryDy=0;" edge="1" parent="1" target="ZL6FqzTWpidE5rbKrD5R-65">
          <mxGeometry width="50" height="50" relative="1" as="geometry">
            <mxPoint x="460" y="557.5" as="sourcePoint" />
            <mxPoint x="540" y="492.5" as="targetPoint" />
          </mxGeometry>
        </mxCell>
        <mxCell id="ZL6FqzTWpidE5rbKrD5R-70" value="" style="endArrow=none;html=1;rounded=0;entryX=0;entryY=0.5;entryDx=0;entryDy=0;" edge="1" parent="1" target="ZL6FqzTWpidE5rbKrD5R-66">
          <mxGeometry width="50" height="50" relative="1" as="geometry">
            <mxPoint x="460" y="557.5" as="sourcePoint" />
            <mxPoint x="540" y="552.5" as="targetPoint" />
          </mxGeometry>
        </mxCell>
        <mxCell id="ZL6FqzTWpidE5rbKrD5R-71" value="" style="endArrow=none;html=1;rounded=0;entryX=0;entryY=0.5;entryDx=0;entryDy=0;" edge="1" parent="1" target="ZL6FqzTWpidE5rbKrD5R-67">
          <mxGeometry width="50" height="50" relative="1" as="geometry">
            <mxPoint x="460" y="557.5" as="sourcePoint" />
            <mxPoint x="540" y="612.5" as="targetPoint" />
          </mxGeometry>
        </mxCell>
        <mxCell id="ZL6FqzTWpidE5rbKrD5R-72" value="Anomaly detection&lt;br&gt;sw agent" style="shape=umlActor;verticalLabelPosition=bottom;verticalAlign=top;html=1;outlineConnect=0;" vertex="1" parent="1">
          <mxGeometry x="-770" y="990" width="30" height="60" as="geometry" />
        </mxCell>
        <mxCell id="ZL6FqzTWpidE5rbKrD5R-73" value="DAO01. Check manufacturing plant profile" style="ellipse;whiteSpace=wrap;html=1;" vertex="1" parent="1">
          <mxGeometry x="-520" y="820" width="160" height="50" as="geometry" />
        </mxCell>
        <mxCell id="ZL6FqzTWpidE5rbKrD5R-74" value="DAO02. Check Hardware devices and connectivity" style="ellipse;whiteSpace=wrap;html=1;" vertex="1" parent="1">
          <mxGeometry x="-520" y="890" width="160" height="50" as="geometry" />
        </mxCell>
        <mxCell id="ZL6FqzTWpidE5rbKrD5R-75" value="DAO03. Check Managed object" style="ellipse;whiteSpace=wrap;html=1;" vertex="1" parent="1">
          <mxGeometry x="-517" y="960" width="160" height="50" as="geometry" />
        </mxCell>
        <mxCell id="ZL6FqzTWpidE5rbKrD5R-76" value="DAO04. Check Anomaly type" style="ellipse;whiteSpace=wrap;html=1;" vertex="1" parent="1">
          <mxGeometry x="-517" y="1030" width="160" height="50" as="geometry" />
        </mxCell>
        <mxCell id="ZL6FqzTWpidE5rbKrD5R-77" value="DAO06. Acquire data" style="ellipse;whiteSpace=wrap;html=1;" vertex="1" parent="1">
          <mxGeometry x="-518.5" y="1170" width="160" height="50" as="geometry" />
        </mxCell>
        <mxCell id="ZL6FqzTWpidE5rbKrD5R-78" value="DAO07. data preprocessing" style="ellipse;whiteSpace=wrap;html=1;" vertex="1" parent="1">
          <mxGeometry x="-518.5" y="1240" width="160" height="50" as="geometry" />
        </mxCell>
        <mxCell id="ZL6FqzTWpidE5rbKrD5R-79" value="DAO05. choose appropriate method to detect&amp;nbsp;" style="ellipse;whiteSpace=wrap;html=1;" vertex="1" parent="1">
          <mxGeometry x="-517" y="1100" width="160" height="50" as="geometry" />
        </mxCell>
        <mxCell id="ZL6FqzTWpidE5rbKrD5R-80" value="DAO08. detect anomaly occurence" style="ellipse;whiteSpace=wrap;html=1;" vertex="1" parent="1">
          <mxGeometry x="-520" y="1310" width="160" height="50" as="geometry" />
        </mxCell>
        <mxCell id="ZL6FqzTWpidE5rbKrD5R-81" value="ML&lt;br&gt;sw agent" style="shape=umlActor;verticalLabelPosition=bottom;verticalAlign=top;html=1;outlineConnect=0;" vertex="1" parent="1">
          <mxGeometry x="-250" y="1130" width="30" height="60" as="geometry" />
        </mxCell>
        <mxCell id="ZL6FqzTWpidE5rbKrD5R-82" value="Statistical analysis&lt;br&gt;sw agent" style="shape=umlActor;verticalLabelPosition=bottom;verticalAlign=top;html=1;outlineConnect=0;" vertex="1" parent="1">
          <mxGeometry x="-250" y="1270" width="30" height="60" as="geometry" />
        </mxCell>
        <mxCell id="ZL6FqzTWpidE5rbKrD5R-83" value="" style="endArrow=none;html=1;rounded=0;entryX=0;entryY=0.5;entryDx=0;entryDy=0;exitX=1;exitY=0.3333333333333333;exitDx=0;exitDy=0;exitPerimeter=0;" edge="1" parent="1" source="ZL6FqzTWpidE5rbKrD5R-72" target="ZL6FqzTWpidE5rbKrD5R-79">
          <mxGeometry width="50" height="50" relative="1" as="geometry">
            <mxPoint x="-620" y="1169" as="sourcePoint" />
            <mxPoint x="-530" y="1359" as="targetPoint" />
          </mxGeometry>
        </mxCell>
        <mxCell id="ZL6FqzTWpidE5rbKrD5R-84" value="" style="endArrow=none;html=1;rounded=0;entryX=0;entryY=0.5;entryDx=0;entryDy=0;exitX=1;exitY=0.3333333333333333;exitDx=0;exitDy=0;exitPerimeter=0;" edge="1" parent="1" source="ZL6FqzTWpidE5rbKrD5R-72" target="ZL6FqzTWpidE5rbKrD5R-76">
          <mxGeometry width="50" height="50" relative="1" as="geometry">
            <mxPoint x="-660" y="880" as="sourcePoint" />
            <mxPoint x="-537" y="1265" as="targetPoint" />
          </mxGeometry>
        </mxCell>
        <mxCell id="ZL6FqzTWpidE5rbKrD5R-85" value="" style="endArrow=none;html=1;rounded=0;entryX=0;entryY=0.5;entryDx=0;entryDy=0;exitX=1;exitY=0.3333333333333333;exitDx=0;exitDy=0;exitPerimeter=0;" edge="1" parent="1" source="ZL6FqzTWpidE5rbKrD5R-72" target="ZL6FqzTWpidE5rbKrD5R-75">
          <mxGeometry width="50" height="50" relative="1" as="geometry">
            <mxPoint x="-640" y="1160" as="sourcePoint" />
            <mxPoint x="-537" y="1195" as="targetPoint" />
          </mxGeometry>
        </mxCell>
        <mxCell id="ZL6FqzTWpidE5rbKrD5R-86" value="" style="endArrow=none;html=1;rounded=0;entryX=0;entryY=0.5;entryDx=0;entryDy=0;exitX=1;exitY=0.3333333333333333;exitDx=0;exitDy=0;exitPerimeter=0;" edge="1" parent="1" source="ZL6FqzTWpidE5rbKrD5R-72" target="ZL6FqzTWpidE5rbKrD5R-74">
          <mxGeometry width="50" height="50" relative="1" as="geometry">
            <mxPoint x="-630" y="1170" as="sourcePoint" />
            <mxPoint x="-537" y="1125" as="targetPoint" />
          </mxGeometry>
        </mxCell>
        <mxCell id="ZL6FqzTWpidE5rbKrD5R-87" value="" style="endArrow=none;html=1;rounded=0;entryX=0;entryY=0.5;entryDx=0;entryDy=0;exitX=1;exitY=0.3333333333333333;exitDx=0;exitDy=0;exitPerimeter=0;" edge="1" parent="1" source="ZL6FqzTWpidE5rbKrD5R-72" target="ZL6FqzTWpidE5rbKrD5R-73">
          <mxGeometry width="50" height="50" relative="1" as="geometry">
            <mxPoint x="-670" y="870" as="sourcePoint" />
            <mxPoint x="-540" y="1055" as="targetPoint" />
          </mxGeometry>
        </mxCell>
        <mxCell id="ZL6FqzTWpidE5rbKrD5R-88" value="" style="endArrow=none;html=1;rounded=0;entryX=0;entryY=0.5;entryDx=0;entryDy=0;exitX=1;exitY=0.3333333333333333;exitDx=0;exitDy=0;exitPerimeter=0;" edge="1" parent="1" source="ZL6FqzTWpidE5rbKrD5R-72" target="ZL6FqzTWpidE5rbKrD5R-80">
          <mxGeometry width="50" height="50" relative="1" as="geometry">
            <mxPoint x="-640" y="1160" as="sourcePoint" />
            <mxPoint x="-539" y="1405" as="targetPoint" />
          </mxGeometry>
        </mxCell>
        <mxCell id="ZL6FqzTWpidE5rbKrD5R-89" value="" style="endArrow=none;html=1;rounded=0;exitX=0;exitY=0.3333333333333333;exitDx=0;exitDy=0;exitPerimeter=0;entryX=1;entryY=0.5;entryDx=0;entryDy=0;" edge="1" parent="1" source="ZL6FqzTWpidE5rbKrD5R-81" target="ZL6FqzTWpidE5rbKrD5R-78">
          <mxGeometry width="50" height="50" relative="1" as="geometry">
            <mxPoint x="-630" y="1170" as="sourcePoint" />
            <mxPoint x="-520" y="1265" as="targetPoint" />
          </mxGeometry>
        </mxCell>
        <mxCell id="ZL6FqzTWpidE5rbKrD5R-90" value="" style="endArrow=none;html=1;rounded=0;entryX=1;entryY=0.5;entryDx=0;entryDy=0;exitX=0;exitY=0.3333333333333333;exitDx=0;exitDy=0;exitPerimeter=0;" edge="1" parent="1" source="ZL6FqzTWpidE5rbKrD5R-81" target="ZL6FqzTWpidE5rbKrD5R-80">
          <mxGeometry width="50" height="50" relative="1" as="geometry">
            <mxPoint x="-270" y="1090" as="sourcePoint" />
            <mxPoint x="-349" y="1275" as="targetPoint" />
          </mxGeometry>
        </mxCell>
        <mxCell id="ZL6FqzTWpidE5rbKrD5R-91" value="" style="endArrow=none;html=1;rounded=0;entryX=1;entryY=0.5;entryDx=0;entryDy=0;exitX=0;exitY=0.3333333333333333;exitDx=0;exitDy=0;exitPerimeter=0;" edge="1" parent="1" source="ZL6FqzTWpidE5rbKrD5R-82" target="ZL6FqzTWpidE5rbKrD5R-78">
          <mxGeometry width="50" height="50" relative="1" as="geometry">
            <mxPoint x="-260" y="1180" as="sourcePoint" />
            <mxPoint x="-350" y="1345" as="targetPoint" />
          </mxGeometry>
        </mxCell>
        <mxCell id="ZL6FqzTWpidE5rbKrD5R-92" value="" style="endArrow=none;html=1;rounded=0;entryX=0;entryY=0.3333333333333333;entryDx=0;entryDy=0;entryPerimeter=0;exitX=1;exitY=0.5;exitDx=0;exitDy=0;" edge="1" parent="1" source="ZL6FqzTWpidE5rbKrD5R-80" target="ZL6FqzTWpidE5rbKrD5R-82">
          <mxGeometry width="50" height="50" relative="1" as="geometry">
            <mxPoint x="-520" y="1335" as="sourcePoint" />
            <mxPoint x="-349" y="1275" as="targetPoint" />
          </mxGeometry>
        </mxCell>
        <mxCell id="ZL6FqzTWpidE5rbKrD5R-93" value="" style="endArrow=none;html=1;rounded=0;exitX=0;exitY=0.3333333333333333;exitDx=0;exitDy=0;exitPerimeter=0;entryX=1;entryY=0.5;entryDx=0;entryDy=0;" edge="1" parent="1" source="ZL6FqzTWpidE5rbKrD5R-81" target="ZL6FqzTWpidE5rbKrD5R-77">
          <mxGeometry width="50" height="50" relative="1" as="geometry">
            <mxPoint x="-240" y="1160" as="sourcePoint" />
            <mxPoint x="-349" y="1275" as="targetPoint" />
          </mxGeometry>
        </mxCell>
        <mxCell id="ZL6FqzTWpidE5rbKrD5R-94" value="" style="endArrow=none;html=1;rounded=0;entryX=1;entryY=0.5;entryDx=0;entryDy=0;exitX=0;exitY=0.3333333333333333;exitDx=0;exitDy=0;exitPerimeter=0;" edge="1" parent="1" source="ZL6FqzTWpidE5rbKrD5R-82" target="ZL6FqzTWpidE5rbKrD5R-77">
          <mxGeometry width="50" height="50" relative="1" as="geometry">
            <mxPoint x="-240" y="1300" as="sourcePoint" />
            <mxPoint x="-349" y="1275" as="targetPoint" />
          </mxGeometry>
        </mxCell>
        <mxCell id="ZL6FqzTWpidE5rbKrD5R-95" value="Anomaly remedy&lt;br&gt;sw agent" style="shape=umlActor;verticalLabelPosition=bottom;verticalAlign=top;html=1;outlineConnect=0;" vertex="1" parent="1">
          <mxGeometry x="-60" y="960" width="30" height="60" as="geometry" />
        </mxCell>
        <mxCell id="ZL6FqzTWpidE5rbKrD5R-96" value="RAO01.&amp;nbsp;Check type of aomaly occurence" style="ellipse;whiteSpace=wrap;html=1;" vertex="1" parent="1">
          <mxGeometry x="140" y="887.5" width="160" height="50" as="geometry" />
        </mxCell>
        <mxCell id="ZL6FqzTWpidE5rbKrD5R-97" value="RAO02.&amp;nbsp;Choose appropriate remedy method" style="ellipse;whiteSpace=wrap;html=1;" vertex="1" parent="1">
          <mxGeometry x="140" y="957.5" width="160" height="50" as="geometry" />
        </mxCell>
        <mxCell id="ZL6FqzTWpidE5rbKrD5R-98" value="RAO03. Apply selected remedy method" style="ellipse;whiteSpace=wrap;html=1;" vertex="1" parent="1">
          <mxGeometry x="140" y="1034.5" width="160" height="50" as="geometry" />
        </mxCell>
        <mxCell id="ZL6FqzTWpidE5rbKrD5R-99" value="RAO04. Check remedy action result" style="ellipse;whiteSpace=wrap;html=1;" vertex="1" parent="1">
          <mxGeometry x="140" y="1107.5" width="160" height="50" as="geometry" />
        </mxCell>
        <mxCell id="ZL6FqzTWpidE5rbKrD5R-100" value="RAO05. report incident &lt;br&gt;when remedy fail" style="ellipse;whiteSpace=wrap;html=1;" vertex="1" parent="1">
          <mxGeometry x="140" y="1260" width="160" height="50" as="geometry" />
        </mxCell>
        <mxCell id="ZL6FqzTWpidE5rbKrD5R-101" value="" style="endArrow=none;html=1;rounded=0;entryX=0;entryY=0.5;entryDx=0;entryDy=0;exitX=1;exitY=0.3333333333333333;exitDx=0;exitDy=0;exitPerimeter=0;" edge="1" parent="1" source="ZL6FqzTWpidE5rbKrD5R-95" target="ZL6FqzTWpidE5rbKrD5R-96">
          <mxGeometry width="50" height="50" relative="1" as="geometry">
            <mxPoint x="-730" y="1020" as="sourcePoint" />
            <mxPoint x="-510" y="855" as="targetPoint" />
          </mxGeometry>
        </mxCell>
        <mxCell id="ZL6FqzTWpidE5rbKrD5R-102" value="" style="endArrow=none;html=1;rounded=0;entryX=0;entryY=0.5;entryDx=0;entryDy=0;exitX=1;exitY=0.3333333333333333;exitDx=0;exitDy=0;exitPerimeter=0;" edge="1" parent="1" source="ZL6FqzTWpidE5rbKrD5R-95" target="ZL6FqzTWpidE5rbKrD5R-97">
          <mxGeometry width="50" height="50" relative="1" as="geometry">
            <mxPoint x="-20" y="990" as="sourcePoint" />
            <mxPoint x="120" y="865" as="targetPoint" />
          </mxGeometry>
        </mxCell>
        <mxCell id="ZL6FqzTWpidE5rbKrD5R-103" value="" style="endArrow=none;html=1;rounded=0;entryX=0;entryY=0.5;entryDx=0;entryDy=0;" edge="1" parent="1" target="ZL6FqzTWpidE5rbKrD5R-98">
          <mxGeometry width="50" height="50" relative="1" as="geometry">
            <mxPoint x="-30" y="980" as="sourcePoint" />
            <mxPoint x="120" y="935" as="targetPoint" />
          </mxGeometry>
        </mxCell>
        <mxCell id="ZL6FqzTWpidE5rbKrD5R-104" value="" style="endArrow=none;html=1;rounded=0;entryX=0;entryY=0.5;entryDx=0;entryDy=0;" edge="1" parent="1" target="ZL6FqzTWpidE5rbKrD5R-99">
          <mxGeometry width="50" height="50" relative="1" as="geometry">
            <mxPoint x="-30" y="980" as="sourcePoint" />
            <mxPoint x="120" y="1012" as="targetPoint" />
          </mxGeometry>
        </mxCell>
        <mxCell id="ZL6FqzTWpidE5rbKrD5R-105" value="" style="endArrow=none;html=1;rounded=0;entryX=0;entryY=0.5;entryDx=0;entryDy=0;exitX=1;exitY=0.3333333333333333;exitDx=0;exitDy=0;exitPerimeter=0;" edge="1" parent="1" source="ZL6FqzTWpidE5rbKrD5R-95" target="ZL6FqzTWpidE5rbKrD5R-100">
          <mxGeometry width="50" height="50" relative="1" as="geometry">
            <mxPoint x="-30" y="990" as="sourcePoint" />
            <mxPoint x="120" y="1085" as="targetPoint" />
          </mxGeometry>
        </mxCell>
        <mxCell id="ZL6FqzTWpidE5rbKrD5R-106" value="Worker" style="shape=umlActor;verticalLabelPosition=bottom;verticalAlign=top;html=1;outlineConnect=0;" vertex="1" parent="1">
          <mxGeometry x="410" y="1217.5" width="30" height="60" as="geometry" />
        </mxCell>
        <mxCell id="ZL6FqzTWpidE5rbKrD5R-107" value="Manager" style="shape=umlActor;verticalLabelPosition=bottom;verticalAlign=top;html=1;outlineConnect=0;" vertex="1" parent="1">
          <mxGeometry x="414" y="1342.5" width="30" height="60" as="geometry" />
        </mxCell>
        <mxCell id="ZL6FqzTWpidE5rbKrD5R-108" value="" style="endArrow=none;html=1;rounded=0;entryX=1;entryY=0.5;entryDx=0;entryDy=0;exitX=0;exitY=0.3333333333333333;exitDx=0;exitDy=0;exitPerimeter=0;" edge="1" parent="1" source="ZL6FqzTWpidE5rbKrD5R-106" target="ZL6FqzTWpidE5rbKrD5R-100">
          <mxGeometry width="50" height="50" relative="1" as="geometry">
            <mxPoint x="-200" y="632.5" as="sourcePoint" />
            <mxPoint x="-110" y="822.5" as="targetPoint" />
          </mxGeometry>
        </mxCell>
        <mxCell id="ZL6FqzTWpidE5rbKrD5R-109" value="" style="endArrow=none;html=1;rounded=0;entryX=1;entryY=0.5;entryDx=0;entryDy=0;exitX=0;exitY=0.3333333333333333;exitDx=0;exitDy=0;exitPerimeter=0;" edge="1" parent="1" source="ZL6FqzTWpidE5rbKrD5R-107" target="ZL6FqzTWpidE5rbKrD5R-100">
          <mxGeometry width="50" height="50" relative="1" as="geometry">
            <mxPoint x="454" y="1077.5" as="sourcePoint" />
            <mxPoint x="310" y="1212.5" as="targetPoint" />
          </mxGeometry>
        </mxCell>
        <mxCell id="ZL6FqzTWpidE5rbKrD5R-110" value="Generating report&lt;br&gt;sw agent" style="shape=umlActor;verticalLabelPosition=bottom;verticalAlign=top;html=1;outlineConnect=0;" vertex="1" parent="1">
          <mxGeometry x="1085" y="1114" width="30" height="60" as="geometry" />
        </mxCell>
        <mxCell id="ZL6FqzTWpidE5rbKrD5R-111" value="GRM01. enter period &lt;br&gt;to be reported" style="ellipse;whiteSpace=wrap;html=1;" vertex="1" parent="1">
          <mxGeometry x="770" y="1029.5" width="160" height="50" as="geometry" />
        </mxCell>
        <mxCell id="ZL6FqzTWpidE5rbKrD5R-112" value="RAO06. Store result of remedy" style="ellipse;whiteSpace=wrap;html=1;" vertex="1" parent="1">
          <mxGeometry x="140" y="1185" width="160" height="50" as="geometry" />
        </mxCell>
        <mxCell id="ZL6FqzTWpidE5rbKrD5R-113" value="" style="endArrow=none;html=1;rounded=0;entryX=0;entryY=0.5;entryDx=0;entryDy=0;" edge="1" parent="1" target="ZL6FqzTWpidE5rbKrD5R-112">
          <mxGeometry width="50" height="50" relative="1" as="geometry">
            <mxPoint x="-30" y="980" as="sourcePoint" />
            <mxPoint x="120" y="1085" as="targetPoint" />
          </mxGeometry>
        </mxCell>
        <mxCell id="ZL6FqzTWpidE5rbKrD5R-114" value="GRM02. generate anomaly management report&amp;nbsp;&lt;br&gt;for given period" style="ellipse;whiteSpace=wrap;html=1;" vertex="1" parent="1">
          <mxGeometry x="770" y="1119" width="160" height="50" as="geometry" />
        </mxCell>
        <mxCell id="ZL6FqzTWpidE5rbKrD5R-115" value="GRM03. modify anomaly management" style="ellipse;whiteSpace=wrap;html=1;" vertex="1" parent="1">
          <mxGeometry x="760" y="1210" width="160" height="50" as="geometry" />
        </mxCell>
        <mxCell id="ZL6FqzTWpidE5rbKrD5R-116" value="DAO09. store anomaly occurence" style="ellipse;whiteSpace=wrap;html=1;" vertex="1" parent="1">
          <mxGeometry x="-520" y="1390" width="160" height="50" as="geometry" />
        </mxCell>
        <mxCell id="ZL6FqzTWpidE5rbKrD5R-117" value="" style="endArrow=none;html=1;rounded=0;entryX=0;entryY=0.5;entryDx=0;entryDy=0;exitX=1;exitY=0.3333333333333333;exitDx=0;exitDy=0;exitPerimeter=0;" edge="1" parent="1" source="ZL6FqzTWpidE5rbKrD5R-72" target="ZL6FqzTWpidE5rbKrD5R-116">
          <mxGeometry width="50" height="50" relative="1" as="geometry">
            <mxPoint x="-730" y="1020" as="sourcePoint" />
            <mxPoint x="-510" y="1345" as="targetPoint" />
          </mxGeometry>
        </mxCell>
        <mxCell id="ZL6FqzTWpidE5rbKrD5R-118" value="GRM04. delete anomaly management" style="ellipse;whiteSpace=wrap;html=1;" vertex="1" parent="1">
          <mxGeometry x="770" y="1305" width="160" height="50" as="geometry" />
        </mxCell>
        <mxCell id="ZL6FqzTWpidE5rbKrD5R-119" value="modify anomaly occurence&amp;nbsp;" style="ellipse;whiteSpace=wrap;html=1;" vertex="1" parent="1">
          <mxGeometry x="1020" y="1230" width="160" height="50" as="geometry" />
        </mxCell>
        <mxCell id="ZL6FqzTWpidE5rbKrD5R-120" value="modify anomaly remedy result&amp;nbsp;" style="ellipse;whiteSpace=wrap;html=1;" vertex="1" parent="1">
          <mxGeometry x="1020" y="1300" width="160" height="50" as="geometry" />
        </mxCell>
        <mxCell id="ZL6FqzTWpidE5rbKrD5R-121" value="delete anomaly occurence&amp;nbsp;" style="ellipse;whiteSpace=wrap;html=1;" vertex="1" parent="1">
          <mxGeometry x="1020" y="1390" width="160" height="50" as="geometry" />
        </mxCell>
        <mxCell id="ZL6FqzTWpidE5rbKrD5R-122" value="delete anomaly remedy result&amp;nbsp;" style="ellipse;whiteSpace=wrap;html=1;" vertex="1" parent="1">
          <mxGeometry x="1020" y="1460" width="160" height="50" as="geometry" />
        </mxCell>
        <mxCell id="ZL6FqzTWpidE5rbKrD5R-123" value="" style="endArrow=block;html=1;rounded=0;exitX=0;exitY=0.5;exitDx=0;exitDy=0;endFill=0;strokeWidth=1;entryX=1;entryY=0.5;entryDx=0;entryDy=0;" edge="1" parent="1" source="ZL6FqzTWpidE5rbKrD5R-119" target="ZL6FqzTWpidE5rbKrD5R-115">
          <mxGeometry width="50" height="50" relative="1" as="geometry">
            <mxPoint x="1030" y="1170" as="sourcePoint" />
            <mxPoint x="960" y="1257" as="targetPoint" />
          </mxGeometry>
        </mxCell>
        <mxCell id="ZL6FqzTWpidE5rbKrD5R-124" value="" style="endArrow=block;html=1;rounded=0;exitX=0;exitY=0.5;exitDx=0;exitDy=0;endFill=0;strokeWidth=1;" edge="1" parent="1" source="ZL6FqzTWpidE5rbKrD5R-120">
          <mxGeometry width="50" height="50" relative="1" as="geometry">
            <mxPoint x="1040" y="1180" as="sourcePoint" />
            <mxPoint x="920" y="1240" as="targetPoint" />
          </mxGeometry>
        </mxCell>
        <mxCell id="ZL6FqzTWpidE5rbKrD5R-125" value="" style="endArrow=block;html=1;rounded=0;exitX=0;exitY=0.5;exitDx=0;exitDy=0;endFill=0;strokeWidth=1;entryX=1;entryY=0.5;entryDx=0;entryDy=0;" edge="1" parent="1" source="ZL6FqzTWpidE5rbKrD5R-121" target="ZL6FqzTWpidE5rbKrD5R-118">
          <mxGeometry width="50" height="50" relative="1" as="geometry">
            <mxPoint x="1040" y="1250" as="sourcePoint" />
            <mxPoint x="960" y="1330" as="targetPoint" />
          </mxGeometry>
        </mxCell>
        <mxCell id="ZL6FqzTWpidE5rbKrD5R-126" value="" style="endArrow=block;html=1;rounded=0;exitX=0;exitY=0.5;exitDx=0;exitDy=0;endFill=0;strokeWidth=1;entryX=1;entryY=0.5;entryDx=0;entryDy=0;" edge="1" parent="1" source="ZL6FqzTWpidE5rbKrD5R-122" target="ZL6FqzTWpidE5rbKrD5R-118">
          <mxGeometry width="50" height="50" relative="1" as="geometry">
            <mxPoint x="1040" y="1340" as="sourcePoint" />
            <mxPoint x="930" y="1240" as="targetPoint" />
          </mxGeometry>
        </mxCell>
        <mxCell id="ZL6FqzTWpidE5rbKrD5R-127" value="" style="endArrow=none;html=1;rounded=0;entryX=1;entryY=0.3333333333333333;entryDx=0;entryDy=0;exitX=0;exitY=0.5;exitDx=0;exitDy=0;entryPerimeter=0;" edge="1" parent="1" source="ZL6FqzTWpidE5rbKrD5R-111" target="ZL6FqzTWpidE5rbKrD5R-141">
          <mxGeometry width="50" height="50" relative="1" as="geometry">
            <mxPoint x="390" y="1343.75" as="sourcePoint" />
            <mxPoint x="280" y="1391.75" as="targetPoint" />
          </mxGeometry>
        </mxCell>
        <mxCell id="ZL6FqzTWpidE5rbKrD5R-128" value="" style="endArrow=none;html=1;rounded=0;entryX=1;entryY=0.3333333333333333;entryDx=0;entryDy=0;exitX=0;exitY=0.5;exitDx=0;exitDy=0;entryPerimeter=0;" edge="1" parent="1" source="ZL6FqzTWpidE5rbKrD5R-114" target="ZL6FqzTWpidE5rbKrD5R-142">
          <mxGeometry width="50" height="50" relative="1" as="geometry">
            <mxPoint x="770" y="1105" as="sourcePoint" />
            <mxPoint x="670" y="1180" as="targetPoint" />
          </mxGeometry>
        </mxCell>
        <mxCell id="ZL6FqzTWpidE5rbKrD5R-129" value="" style="endArrow=none;html=1;rounded=0;exitX=0;exitY=0.5;exitDx=0;exitDy=0;entryX=1;entryY=0.3333333333333333;entryDx=0;entryDy=0;entryPerimeter=0;" edge="1" parent="1" source="ZL6FqzTWpidE5rbKrD5R-115" target="ZL6FqzTWpidE5rbKrD5R-142">
          <mxGeometry width="50" height="50" relative="1" as="geometry">
            <mxPoint x="770" y="1175" as="sourcePoint" />
            <mxPoint x="660" y="1032.5" as="targetPoint" />
          </mxGeometry>
        </mxCell>
        <mxCell id="ZL6FqzTWpidE5rbKrD5R-130" value="" style="endArrow=none;html=1;rounded=0;exitX=0;exitY=0.5;exitDx=0;exitDy=0;entryX=1;entryY=0.3333333333333333;entryDx=0;entryDy=0;entryPerimeter=0;" edge="1" parent="1" source="ZL6FqzTWpidE5rbKrD5R-118" target="ZL6FqzTWpidE5rbKrD5R-141">
          <mxGeometry width="50" height="50" relative="1" as="geometry">
            <mxPoint x="780" y="1165.75" as="sourcePoint" />
            <mxPoint x="670" y="936.25" as="targetPoint" />
          </mxGeometry>
        </mxCell>
        <mxCell id="ZL6FqzTWpidE5rbKrD5R-131" value="Manufacturing Plant Management&amp;nbsp;" style="shape=note;whiteSpace=wrap;html=1;backgroundOutline=1;darkOpacity=0.05;size=18;" vertex="1" parent="1">
          <mxGeometry x="-579.25" y="20" width="221.5" height="30" as="geometry" />
        </mxCell>
        <mxCell id="ZL6FqzTWpidE5rbKrD5R-132" value="Managed Object Management&amp;nbsp;" style="shape=note;whiteSpace=wrap;html=1;backgroundOutline=1;darkOpacity=0.05;size=18;" vertex="1" parent="1">
          <mxGeometry x="-169.25" y="20" width="221.5" height="30" as="geometry" />
        </mxCell>
        <mxCell id="ZL6FqzTWpidE5rbKrD5R-133" value="Hardware Devices Management&amp;nbsp;" style="shape=note;whiteSpace=wrap;html=1;backgroundOutline=1;darkOpacity=0.05;size=18;" vertex="1" parent="1">
          <mxGeometry x="230" y="20" width="221.5" height="30" as="geometry" />
        </mxCell>
        <mxCell id="ZL6FqzTWpidE5rbKrD5R-134" value="Worker Profile Management&amp;nbsp;" style="shape=note;whiteSpace=wrap;html=1;backgroundOutline=1;darkOpacity=0.05;size=18;" vertex="1" parent="1">
          <mxGeometry x="-581.5" y="380" width="221.5" height="30" as="geometry" />
        </mxCell>
        <mxCell id="ZL6FqzTWpidE5rbKrD5R-135" value="Manager Profile Management" style="shape=note;whiteSpace=wrap;html=1;backgroundOutline=1;darkOpacity=0.05;size=18;" vertex="1" parent="1">
          <mxGeometry x="-179.25" y="380" width="221.5" height="30" as="geometry" />
        </mxCell>
        <mxCell id="ZL6FqzTWpidE5rbKrD5R-136" value="Anomaly Type Management&amp;nbsp;" style="shape=note;whiteSpace=wrap;html=1;backgroundOutline=1;darkOpacity=0.05;size=18;" vertex="1" parent="1">
          <mxGeometry x="170" y="380" width="221.5" height="30" as="geometry" />
        </mxCell>
        <mxCell id="ZL6FqzTWpidE5rbKrD5R-137" value="Remedy Method Management&amp;nbsp;" style="shape=note;whiteSpace=wrap;html=1;backgroundOutline=1;darkOpacity=0.05;size=18;" vertex="1" parent="1">
          <mxGeometry x="490" y="380" width="221.5" height="30" as="geometry" />
        </mxCell>
        <mxCell id="ZL6FqzTWpidE5rbKrD5R-138" value="Detecting Anomaly Occurrences&amp;nbsp;" style="shape=note;whiteSpace=wrap;html=1;backgroundOutline=1;darkOpacity=0.05;size=18;" vertex="1" parent="1">
          <mxGeometry x="-790" y="830" width="221.5" height="30" as="geometry" />
        </mxCell>
        <mxCell id="ZL6FqzTWpidE5rbKrD5R-139" value="Remedying Anomaly Occurrences&amp;nbsp;" style="shape=note;whiteSpace=wrap;html=1;backgroundOutline=1;darkOpacity=0.05;size=18;" vertex="1" parent="1">
          <mxGeometry x="8.5" y="840" width="221.5" height="30" as="geometry" />
        </mxCell>
        <mxCell id="ZL6FqzTWpidE5rbKrD5R-140" value="Generating Reports Management&amp;nbsp;" style="shape=note;whiteSpace=wrap;html=1;backgroundOutline=1;darkOpacity=0.05;size=18;" vertex="1" parent="1">
          <mxGeometry x="920" y="950" width="221.5" height="30" as="geometry" />
        </mxCell>
        <mxCell id="ZL6FqzTWpidE5rbKrD5R-141" value="Worker" style="shape=umlActor;verticalLabelPosition=bottom;verticalAlign=top;html=1;outlineConnect=0;" vertex="1" parent="1">
          <mxGeometry x="620" y="1080" width="30" height="60" as="geometry" />
        </mxCell>
        <mxCell id="ZL6FqzTWpidE5rbKrD5R-142" value="Manager" style="shape=umlActor;verticalLabelPosition=bottom;verticalAlign=top;html=1;outlineConnect=0;" vertex="1" parent="1">
          <mxGeometry x="630" y="1190" width="30" height="60" as="geometry" />
        </mxCell>
        <mxCell id="ZL6FqzTWpidE5rbKrD5R-145" value="" style="endArrow=none;html=1;rounded=0;entryX=1;entryY=0.3333333333333333;entryDx=0;entryDy=0;entryPerimeter=0;exitX=0;exitY=0.5;exitDx=0;exitDy=0;" edge="1" parent="1" source="ZL6FqzTWpidE5rbKrD5R-111" target="ZL6FqzTWpidE5rbKrD5R-142">
          <mxGeometry width="50" height="50" relative="1" as="geometry">
            <mxPoint x="770" y="1006.25" as="sourcePoint" />
            <mxPoint x="680" y="846.25" as="targetPoint" />
          </mxGeometry>
        </mxCell>
        <mxCell id="ZL6FqzTWpidE5rbKrD5R-146" value="" style="endArrow=none;html=1;rounded=0;exitX=0;exitY=0.5;exitDx=0;exitDy=0;entryX=1;entryY=0.3333333333333333;entryDx=0;entryDy=0;entryPerimeter=0;" edge="1" parent="1" source="ZL6FqzTWpidE5rbKrD5R-118" target="ZL6FqzTWpidE5rbKrD5R-142">
          <mxGeometry width="50" height="50" relative="1" as="geometry">
            <mxPoint x="770" y="1325.5" as="sourcePoint" />
            <mxPoint x="660" y="1032.5" as="targetPoint" />
          </mxGeometry>
        </mxCell>
        <mxCell id="ZL6FqzTWpidE5rbKrD5R-147" value="" style="endArrow=none;html=1;rounded=0;entryX=1;entryY=0.3333333333333333;entryDx=0;entryDy=0;entryPerimeter=0;exitX=0;exitY=0.5;exitDx=0;exitDy=0;" edge="1" parent="1" source="ZL6FqzTWpidE5rbKrD5R-115" target="ZL6FqzTWpidE5rbKrD5R-141">
          <mxGeometry width="50" height="50" relative="1" as="geometry">
            <mxPoint x="770" y="1156.25" as="sourcePoint" />
            <mxPoint x="670" y="846.25" as="targetPoint" />
          </mxGeometry>
        </mxCell>
        <mxCell id="ZL6FqzTWpidE5rbKrD5R-148" value="" style="endArrow=none;html=1;rounded=0;exitX=0;exitY=0.5;exitDx=0;exitDy=0;entryX=1;entryY=0.3333333333333333;entryDx=0;entryDy=0;entryPerimeter=0;" edge="1" parent="1" source="ZL6FqzTWpidE5rbKrD5R-114" target="ZL6FqzTWpidE5rbKrD5R-141">
          <mxGeometry width="50" height="50" relative="1" as="geometry">
            <mxPoint x="780" y="1166.25" as="sourcePoint" />
            <mxPoint x="670" y="846.25" as="targetPoint" />
          </mxGeometry>
        </mxCell>
        <mxCell id="ZL6FqzTWpidE5rbKrD5R-150" value="GRM05. retrieve anomaly management report given period" style="ellipse;whiteSpace=wrap;html=1;" vertex="1" parent="1">
          <mxGeometry x="1210" y="1107.5" width="200" height="50" as="geometry" />
        </mxCell>
        <mxCell id="ZL6FqzTWpidE5rbKrD5R-152" value="" style="endArrow=none;html=1;rounded=0;exitX=0;exitY=0.5;exitDx=0;exitDy=0;entryX=1;entryY=0.3333333333333333;entryDx=0;entryDy=0;entryPerimeter=0;" edge="1" parent="1" source="ZL6FqzTWpidE5rbKrD5R-150" target="ZL6FqzTWpidE5rbKrD5R-110">
          <mxGeometry width="50" height="50" relative="1" as="geometry">
            <mxPoint x="760" y="1233" as="sourcePoint" />
            <mxPoint x="660" y="998" as="targetPoint" />
          </mxGeometry>
        </mxCell>
        <mxCell id="ZL6FqzTWpidE5rbKrD5R-156" value="" style="endArrow=none;html=1;rounded=0;exitX=0;exitY=0.3333333333333333;exitDx=0;exitDy=0;entryX=1;entryY=0.5;entryDx=0;entryDy=0;exitPerimeter=0;" edge="1" parent="1" source="ZL6FqzTWpidE5rbKrD5R-110" target="ZL6FqzTWpidE5rbKrD5R-114">
          <mxGeometry width="50" height="50" relative="1" as="geometry">
            <mxPoint x="1230" y="1085" as="sourcePoint" />
            <mxPoint x="1135" y="1060" as="targetPoint" />
          </mxGeometry>
        </mxCell>
        <mxCell id="ZL6FqzTWpidE5rbKrD5R-157" value="modify anomaly occurence&amp;nbsp;" style="ellipse;whiteSpace=wrap;html=1;" vertex="1" parent="1">
          <mxGeometry x="1520" y="1057.5" width="160" height="50" as="geometry" />
        </mxCell>
        <mxCell id="ZL6FqzTWpidE5rbKrD5R-158" value="modify anomaly remedy result&amp;nbsp;" style="ellipse;whiteSpace=wrap;html=1;" vertex="1" parent="1">
          <mxGeometry x="1520" y="1140" width="160" height="50" as="geometry" />
        </mxCell>
        <mxCell id="ZL6FqzTWpidE5rbKrD5R-159" value="" style="endArrow=block;html=1;rounded=0;exitX=0;exitY=0.5;exitDx=0;exitDy=0;endFill=0;strokeWidth=1;entryX=1;entryY=0.5;entryDx=0;entryDy=0;" edge="1" parent="1" source="ZL6FqzTWpidE5rbKrD5R-157">
          <mxGeometry width="50" height="50" relative="1" as="geometry">
            <mxPoint x="1520" y="1062.5" as="sourcePoint" />
            <mxPoint x="1410" y="1127.5" as="targetPoint" />
          </mxGeometry>
        </mxCell>
        <mxCell id="ZL6FqzTWpidE5rbKrD5R-160" value="" style="endArrow=block;html=1;rounded=0;exitX=0;exitY=0.5;exitDx=0;exitDy=0;endFill=0;strokeWidth=1;" edge="1" parent="1" source="ZL6FqzTWpidE5rbKrD5R-158">
          <mxGeometry width="50" height="50" relative="1" as="geometry">
            <mxPoint x="1530" y="1072.5" as="sourcePoint" />
            <mxPoint x="1410" y="1132.5" as="targetPoint" />
          </mxGeometry>
        </mxCell>
      </root>
    </mxGraphModel>
  </diagram>
</mxfile>
